<svg width="82" height="84" viewBox="0 0 82 84" fill="none" xmlns="http://www.w3.org/2000/svg">
<g filter="url(#filter0_d_3892_289)">
<ellipse cx="41.0843" cy="39.9441" rx="37.0843" ry="37.0558" fill="#6202EE"/>
</g>
<path d="M76.1614 39.9441C76.1614 59.2995 60.4583 74.9927 41.0843 74.9927C21.7103 74.9927 6.00717 59.2995 6.00717 39.9441C6.00717 20.5887 21.7103 4.89548 41.0843 4.89548C60.4583 4.89548 76.1614 20.5887 76.1614 39.9441Z" stroke="#1ABCFE" stroke-width="4.01435"/>
<rect x="39.9906" y="1.79642" width="2.18725" height="2.1839" rx="1.09195" fill="white" stroke="#1ABCFE" stroke-width="2.1839"/>
<rect y="1.54425" width="2.18474" height="2.18474" transform="matrix(0.707378 0.706835 -0.707378 0.706835 73.7617 0.452719)" fill="white" stroke="#1ABCFE" stroke-width="2.18474"/>
<rect y="1.54425" width="2.18474" height="2.18474" transform="matrix(0.707378 0.706835 -0.707378 0.706835 10.4505 0.452719)" fill="white" stroke="#1ABCFE" stroke-width="2.18474"/>
<path d="M36.4178 39.16C37.0311 39.16 37.5511 39.3867 37.9778 39.84C38.4311 40.2667 38.6578 40.7867 38.6578 41.4C38.6578 42.0133 38.4311 42.5467 37.9778 43C37.5511 43.4267 37.0311 43.64 36.4178 43.64H30.3778V49.68C30.3778 50.2933 30.1511 50.8267 29.6978 51.28C29.2711 51.7067 28.7511 51.92 28.1378 51.92C27.5245 51.92 27.0045 51.7067 26.5778 51.28C26.1511 50.8267 25.9378 50.2933 25.9378 49.68V43.64H19.8578C19.2445 43.64 18.7245 43.4267 18.2978 43C17.8711 42.5467 17.6578 42.0133 17.6578 41.4C17.6578 40.7867 17.8711 40.2667 18.2978 39.84C18.7245 39.3867 19.2445 39.16 19.8578 39.16H25.9378V33.12C25.9378 32.5067 26.1511 31.9867 26.5778 31.56C27.0045 31.1067 27.5245 30.88 28.1378 30.88C28.7511 30.88 29.2711 31.1067 29.6978 31.56C30.1511 31.9867 30.3778 32.5067 30.3778 33.12V39.16H36.4178ZM57.8 53.24C57.8 53.9333 57.5467 54.52 57.04 55C56.56 55.5067 55.9867 55.76 55.32 55.76C54.6267 55.76 54.0267 55.5067 53.52 55C53.04 54.52 52.8 53.9333 52.8 53.24V30.6L49 33.96C48.4933 34.3867 47.9467 34.6 47.36 34.6C46.6667 34.6 46.0667 34.36 45.56 33.88C45.08 33.4 44.84 32.8133 44.84 32.12C44.84 31.7467 44.92 31.3867 45.08 31.04C45.24 30.6933 45.4533 30.4133 45.72 30.2L53.8 23C54.3867 22.4933 54.96 22.24 55.52 22.24C56.16 22.24 56.6933 22.48 57.12 22.96C57.5733 23.4133 57.8 24.0133 57.8 24.76V53.24Z" fill="white"/>
<defs>
<filter id="filter0_d_3892_289" x="0.769577" y="2.88831" width="80.6294" height="80.5724" filterUnits="userSpaceOnUse" color-interpolation-filters="sRGB">
<feFlood flood-opacity="0" result="BackgroundImageFix"/>
<feColorMatrix in="SourceAlpha" type="matrix" values="0 0 0 0 0 0 0 0 0 0 0 0 0 0 0 0 0 0 127 0" result="hardAlpha"/>
<feOffset dy="3.23042"/>
<feGaussianBlur stdDeviation="1.61521"/>
<feColorMatrix type="matrix" values="0 0 0 0 0 0 0 0 0 0 0 0 0 0 0 0 0 0 0.25 0"/>
<feBlend mode="normal" in2="BackgroundImageFix" result="effect1_dropShadow_3892_289"/>
<feBlend mode="normal" in="SourceGraphic" in2="effect1_dropShadow_3892_289" result="shape"/>
</filter>
</defs>
</svg>
